<svg xmlns="http://www.w3.org/2000/svg" width="1204" height="736" viewBox="0 0 1204 736" role="img" aria-labelledby="title desc">
  <title id="title">KASPilot mining CLI preview</title>
  <desc id="desc">Actual Ratatui-rendered preview frame of the KASPilot real-time Kaspa mining cockpit.</desc>
  <defs>
    <linearGradient id="scanline" x1="0" x2="0" y1="0" y2="1">
      <stop offset="0%" stop-color="#28e7ff" stop-opacity="0"/>
      <stop offset="50%" stop-color="#28e7ff" stop-opacity="0.16"/>
      <stop offset="100%" stop-color="#28e7ff" stop-opacity="0"/>
    </linearGradient>
  </defs>
  <rect width="100%" height="100%" fill="#050814"/>
  <rect x="12" y="12" width="1180" height="712" rx="10" fill="#07101f" stroke="#28e7ff" stroke-opacity="0.4"/>
  <rect class="scan" x="18" y="-90" width="1168" height="96" fill="url(#scanline)"/>
  <style>
    .term { font-family: ui-monospace, SFMono-Regular, Menlo, Consolas, &quot;Liberation Mono&quot;, monospace; font-size: 15px; dominant-baseline: text-before-edge; white-space: pre; }
    .bold { font-weight: 800; }
    .scan { animation: scan 4.5s linear infinite; }
    @keyframes scan {
      0% { transform: translateY(0); opacity: 0; }
      10% { opacity: 1; }
      90% { opacity: 0.7; }
      100% { transform: translateY(736px); opacity: 0; }
    }
  </style>
  <text class="term" x="26" y="26" fill="#28e7ff">┌──────────────────────────────────────────────────────────────────────────────────────────────────────────────────────────────┐</text>
  <text class="term" x="26" y="44" fill="#28e7ff">│</text>
  <text class="term bold" x="35" y="44" fill="#28e7ff"> KASPILOT</text>
  <text class="term" x="125" y="44" fill="#d9f2ff"> //</text>
  <text class="term bold" x="161" y="44" fill="#3cff9e">● LIVE</text>
  <text class="term" x="215" y="44" fill="#d9f2ff"> //</text>
  <text class="term" x="251" y="44" fill="#d9f2ff">stratum+ssl://kaspa.pool.example:5555</text>
  <text class="term" x="584" y="44" fill="#d9f2ff"> // worker</text>
  <text class="term" x="683" y="44" fill="#ff4fd8">rig-preview-01</text>
  <text class="term" x="1169" y="44" fill="#28e7ff">│</text>
  <text class="term" x="26" y="62" fill="#28e7ff">└──────────────────────────────────────────────────────────────────────────────────────────────────────────────────────────────┘</text>
  <text class="term" x="26" y="80" fill="#28e7ff">┌────────────────────────┐</text>
  <text class="term" x="260" y="80" fill="#ff4fd8">┌───────────────────────┐</text>
  <text class="term" x="485" y="80" fill="#3cff9e">┌────────────────────────┐┌───────────────────────┐</text>
  <text class="term" x="944" y="80" fill="#d9f2ff">┌────────────────────────┐</text>
  <text class="term" x="26" y="98" fill="#28e7ff">│</text>
  <text class="term bold" x="134" y="98" fill="#7d8aa6">NOW</text>
  <text class="term" x="251" y="98" fill="#28e7ff">│</text>
  <text class="term" x="260" y="98" fill="#ff4fd8">│</text>
  <text class="term bold" x="350" y="98" fill="#7d8aa6">PEAK</text>
  <text class="term" x="476" y="98" fill="#ff4fd8">│</text>
  <text class="term" x="485" y="98" fill="#3cff9e">│</text>
  <text class="term bold" x="575" y="98" fill="#7d8aa6">SHARES</text>
  <text class="term" x="710" y="98" fill="#3cff9e">││</text>
  <text class="term bold" x="800" y="98" fill="#7d8aa6">JOB AGE</text>
  <text class="term" x="935" y="98" fill="#3cff9e">│</text>
  <text class="term" x="944" y="98" fill="#d9f2ff">│</text>
  <text class="term bold" x="1034" y="98" fill="#7d8aa6">THREADS</text>
  <text class="term" x="1169" y="98" fill="#d9f2ff">│</text>
  <text class="term" x="26" y="116" fill="#28e7ff">│</text>
  <text class="term bold" x="98" y="116" fill="#28e7ff">22.84 KH/s</text>
  <text class="term" x="251" y="116" fill="#28e7ff">│</text>
  <text class="term" x="260" y="116" fill="#ff4fd8">│</text>
  <text class="term bold" x="323" y="116" fill="#ff4fd8">175.13 MH/s</text>
  <text class="term" x="476" y="116" fill="#ff4fd8">│</text>
  <text class="term" x="485" y="116" fill="#3cff9e">│</text>
  <text class="term bold" x="584" y="116" fill="#3cff9e">14/0</text>
  <text class="term" x="710" y="116" fill="#3cff9e">││</text>
  <text class="term bold" x="818" y="116" fill="#3cff9e">2s</text>
  <text class="term" x="935" y="116" fill="#3cff9e">│</text>
  <text class="term" x="944" y="116" fill="#d9f2ff">│</text>
  <text class="term bold" x="1025" y="116" fill="#d9f2ff">8 x 4096</text>
  <text class="term" x="1169" y="116" fill="#d9f2ff">│</text>
  <text class="term" x="26" y="134" fill="#28e7ff">│</text>
  <text class="term" x="251" y="134" fill="#28e7ff">│</text>
  <text class="term" x="260" y="134" fill="#ff4fd8">│</text>
  <text class="term" x="476" y="134" fill="#ff4fd8">│</text>
  <text class="term" x="485" y="134" fill="#3cff9e">│</text>
  <text class="term" x="710" y="134" fill="#3cff9e">││</text>
  <text class="term" x="935" y="134" fill="#3cff9e">│</text>
  <text class="term" x="944" y="134" fill="#d9f2ff">│</text>
  <text class="term" x="1169" y="134" fill="#d9f2ff">│</text>
  <text class="term" x="26" y="152" fill="#28e7ff">│</text>
  <text class="term" x="251" y="152" fill="#28e7ff">│</text>
  <text class="term" x="260" y="152" fill="#ff4fd8">│</text>
  <text class="term" x="476" y="152" fill="#ff4fd8">│</text>
  <text class="term" x="485" y="152" fill="#3cff9e">│</text>
  <text class="term" x="710" y="152" fill="#3cff9e">││</text>
  <text class="term" x="935" y="152" fill="#3cff9e">│</text>
  <text class="term" x="944" y="152" fill="#d9f2ff">│</text>
  <text class="term" x="1169" y="152" fill="#d9f2ff">│</text>
  <text class="term" x="26" y="170" fill="#28e7ff">│</text>
  <text class="term" x="251" y="170" fill="#28e7ff">│</text>
  <text class="term" x="260" y="170" fill="#ff4fd8">│</text>
  <text class="term" x="476" y="170" fill="#ff4fd8">│</text>
  <text class="term" x="485" y="170" fill="#3cff9e">│</text>
  <text class="term" x="710" y="170" fill="#3cff9e">││</text>
  <text class="term" x="935" y="170" fill="#3cff9e">│</text>
  <text class="term" x="944" y="170" fill="#d9f2ff">│</text>
  <text class="term" x="1169" y="170" fill="#d9f2ff">│</text>
  <text class="term" x="26" y="188" fill="#28e7ff">└────────────────────────┘</text>
  <text class="term" x="260" y="188" fill="#ff4fd8">└───────────────────────┘</text>
  <text class="term" x="485" y="188" fill="#3cff9e">└────────────────────────┘└───────────────────────┘</text>
  <text class="term" x="944" y="188" fill="#d9f2ff">└────────────────────────┘</text>
  <text class="term" x="26" y="206" fill="#5aa7ff">┌ Signal ───────────────────────────────────────┐</text>
  <text class="term" x="467" y="206" fill="#28e7ff">┌ Hashrate Trace  now 22.84 KH/s  peak 28.11 KH/s ────────────────────────────┐</text>
  <text class="term" x="26" y="224" fill="#5aa7ff">│</text>
  <text class="term" x="35" y="224" fill="#7d8aa6">  pool</text>
  <text class="term bold" x="152" y="224" fill="#d9f2ff">stratum+ssl://kaspa.pool.example:…</text>
  <text class="term" x="458" y="224" fill="#5aa7ff">│</text>
  <text class="term" x="467" y="224" fill="#28e7ff">│     ▂ ▅ █</text>
  <text class="term" x="1169" y="224" fill="#28e7ff">│</text>
  <text class="term" x="26" y="242" fill="#5aa7ff">│</text>
  <text class="term" x="35" y="242" fill="#7d8aa6">  wallet</text>
  <text class="term bold" x="152" y="242" fill="#d9f2ff">kaspa:qrx3v6m4r9demoaddress7v0pil…</text>
  <text class="term" x="458" y="242" fill="#5aa7ff">│</text>
  <text class="term" x="467" y="242" fill="#28e7ff">│   ▆▂█▁█▇█▇</text>
  <text class="term" x="1169" y="242" fill="#28e7ff">│</text>
  <text class="term" x="26" y="260" fill="#5aa7ff">│</text>
  <text class="term" x="35" y="260" fill="#7d8aa6">  job</text>
  <text class="term bold" x="152" y="260" fill="#ffd166">82df19b72b88e7ca9f014e96a7f6c001</text>
  <text class="term" x="458" y="260" fill="#5aa7ff">│</text>
  <text class="term" x="467" y="260" fill="#28e7ff">│ ▇▄████████</text>
  <text class="term" x="1169" y="260" fill="#28e7ff">│</text>
  <text class="term" x="26" y="278" fill="#5aa7ff">│</text>
  <text class="term" x="35" y="278" fill="#7d8aa6">  diff</text>
  <text class="term bold" x="152" y="278" fill="#28e7ff">128.0000</text>
  <text class="term" x="458" y="278" fill="#5aa7ff">│</text>
  <text class="term" x="467" y="278" fill="#28e7ff">│███████████</text>
  <text class="term" x="1169" y="278" fill="#28e7ff">│</text>
  <text class="term" x="26" y="296" fill="#5aa7ff">│</text>
  <text class="term" x="35" y="296" fill="#7d8aa6">  extranonce</text>
  <text class="term bold" x="152" y="296" fill="#ff4fd8">00a7ff12</text>
  <text class="term" x="458" y="296" fill="#5aa7ff">│</text>
  <text class="term" x="467" y="296" fill="#28e7ff">│███████████</text>
  <text class="term" x="1169" y="296" fill="#28e7ff">│</text>
  <text class="term" x="26" y="314" fill="#5aa7ff">│</text>
  <text class="term" x="35" y="314" fill="#7d8aa6">  hashes</text>
  <text class="term bold" x="152" y="314" fill="#d9f2ff">742000</text>
  <text class="term" x="458" y="314" fill="#5aa7ff">│</text>
  <text class="term" x="467" y="314" fill="#28e7ff">│███████████</text>
  <text class="term" x="1169" y="314" fill="#28e7ff">│</text>
  <text class="term" x="26" y="332" fill="#5aa7ff">│</text>
  <text class="term" x="35" y="332" fill="#7d8aa6">  uptime</text>
  <text class="term bold" x="152" y="332" fill="#d9f2ff">00:00</text>
  <text class="term" x="458" y="332" fill="#5aa7ff">│</text>
  <text class="term" x="467" y="332" fill="#28e7ff">└─────────────────────────────────────────────────────────────────────────────┘</text>
  <text class="term" x="26" y="350" fill="#5aa7ff">│</text>
  <text class="term" x="35" y="350" fill="#7d8aa6">  reconnects</text>
  <text class="term bold" x="152" y="350" fill="#ffd166">0</text>
  <text class="term" x="458" y="350" fill="#5aa7ff">│┌ Event Stream ───────────────────────────────────────────────────────────────┐</text>
  <text class="term" x="26" y="368" fill="#5aa7ff">│</text>
  <text class="term" x="35" y="368" fill="#7d8aa6">  errors</text>
  <text class="term bold" x="152" y="368" fill="#ff5b6c">0</text>
  <text class="term" x="458" y="368" fill="#5aa7ff">││</text>
  <text class="term" x="476" y="368" fill="#28e7ff">[00:00] pool  connected</text>
  <text class="term" x="1169" y="368" fill="#5aa7ff">│</text>
  <text class="term" x="26" y="386" fill="#5aa7ff">└───────────────────────────────────────────────┘│</text>
  <text class="term" x="476" y="386" fill="#ffd166">[00:00] diff  128.0000</text>
  <text class="term" x="1169" y="386" fill="#5aa7ff">│</text>
  <text class="term" x="26" y="404" fill="#3cff9e">┌ Share Quality ────────────────────────────────┐</text>
  <text class="term" x="467" y="404" fill="#5aa7ff">│</text>
  <text class="term" x="476" y="404" fill="#ffd166">[00:00] job   new work 82df19b72b88e7ca9f014e9</text>
  <text class="term" x="1169" y="404" fill="#5aa7ff">│</text>
  <text class="term" x="26" y="422" fill="#3cff9e">│███████████</text>
  <text class="term" x="134" y="422" fill="#d9f2ff">14 accepted / 0 rejected</text>
  <text class="term" x="359" y="422" fill="#3cff9e">███████████│</text>
  <text class="term" x="467" y="422" fill="#5aa7ff">│</text>
  <text class="term" x="476" y="422" fill="#3cff9e">[00:00] share accepted</text>
  <text class="term" x="1169" y="422" fill="#5aa7ff">│</text>
  <text class="term" x="26" y="440" fill="#3cff9e">└───────────────────────────────────────────────┘</text>
  <text class="term" x="467" y="440" fill="#5aa7ff">│</text>
  <text class="term" x="476" y="440" fill="#3cff9e">[00:00] share accepted</text>
  <text class="term" x="1169" y="440" fill="#5aa7ff">│</text>
  <text class="term" x="26" y="458" fill="#5aa7ff">┌ Thread Heat ──────────────────────────────────┐│</text>
  <text class="term" x="476" y="458" fill="#d9f2ff">[00:00] nonce prefix 00a7ff12</text>
  <text class="term" x="1169" y="458" fill="#5aa7ff">│</text>
  <text class="term" x="26" y="476" fill="#5aa7ff">│</text>
  <text class="term" x="35" y="476" fill="#7d8aa6"> 00</text>
  <text class="term" x="71" y="476" fill="#3cff9e">██████████████░░</text>
  <text class="term" x="224" y="476" fill="#d9f2ff">13.36 MH/s</text>
  <text class="term" x="458" y="476" fill="#5aa7ff">││</text>
  <text class="term" x="1169" y="476" fill="#5aa7ff">│</text>
  <text class="term" x="26" y="494" fill="#5aa7ff">│</text>
  <text class="term" x="35" y="494" fill="#7d8aa6"> 01</text>
  <text class="term" x="71" y="494" fill="#3cff9e">█████████████░░░</text>
  <text class="term" x="224" y="494" fill="#d9f2ff">12.71 MH/s</text>
  <text class="term" x="458" y="494" fill="#5aa7ff">││</text>
  <text class="term" x="1169" y="494" fill="#5aa7ff">│</text>
  <text class="term" x="26" y="512" fill="#5aa7ff">│</text>
  <text class="term" x="35" y="512" fill="#7d8aa6"> 02</text>
  <text class="term" x="71" y="512" fill="#3cff9e">██████████████░░</text>
  <text class="term" x="224" y="512" fill="#d9f2ff">13.72 MH/s</text>
  <text class="term" x="458" y="512" fill="#5aa7ff">││</text>
  <text class="term" x="1169" y="512" fill="#5aa7ff">│</text>
  <text class="term" x="26" y="530" fill="#5aa7ff">│</text>
  <text class="term" x="35" y="530" fill="#7d8aa6"> 03</text>
  <text class="term" x="71" y="530" fill="#3cff9e">████████████░░░░</text>
  <text class="term" x="224" y="530" fill="#d9f2ff">11.69 MH/s</text>
  <text class="term" x="458" y="530" fill="#5aa7ff">││</text>
  <text class="term" x="1169" y="530" fill="#5aa7ff">│</text>
  <text class="term" x="26" y="548" fill="#5aa7ff">│</text>
  <text class="term" x="35" y="548" fill="#7d8aa6"> 04</text>
  <text class="term" x="71" y="548" fill="#3cff9e">████████████████</text>
  <text class="term" x="224" y="548" fill="#d9f2ff">15.00 MH/s</text>
  <text class="term" x="458" y="548" fill="#5aa7ff">││</text>
  <text class="term" x="1169" y="548" fill="#5aa7ff">│</text>
  <text class="term" x="26" y="566" fill="#5aa7ff">│</text>
  <text class="term" x="35" y="566" fill="#7d8aa6"> 05</text>
  <text class="term" x="71" y="566" fill="#3cff9e">███████████████░</text>
  <text class="term" x="224" y="566" fill="#d9f2ff">14.27 MH/s</text>
  <text class="term" x="458" y="566" fill="#5aa7ff">││</text>
  <text class="term" x="1169" y="566" fill="#5aa7ff">│</text>
  <text class="term" x="26" y="584" fill="#5aa7ff">│</text>
  <text class="term" x="35" y="584" fill="#7d8aa6"> 06</text>
  <text class="term" x="71" y="584" fill="#3cff9e">█████████████░░░</text>
  <text class="term" x="224" y="584" fill="#d9f2ff">12.54 MH/s</text>
  <text class="term" x="458" y="584" fill="#5aa7ff">││</text>
  <text class="term" x="1169" y="584" fill="#5aa7ff">│</text>
  <text class="term" x="26" y="602" fill="#5aa7ff">│</text>
  <text class="term" x="35" y="602" fill="#7d8aa6"> 07</text>
  <text class="term" x="71" y="602" fill="#3cff9e">███████████████░</text>
  <text class="term" x="224" y="602" fill="#d9f2ff">13.83 MH/s</text>
  <text class="term" x="458" y="602" fill="#5aa7ff">││</text>
  <text class="term" x="1169" y="602" fill="#5aa7ff">│</text>
  <text class="term" x="26" y="620" fill="#5aa7ff">│</text>
  <text class="term" x="458" y="620" fill="#5aa7ff">││</text>
  <text class="term" x="1169" y="620" fill="#5aa7ff">│</text>
  <text class="term" x="26" y="638" fill="#5aa7ff">└───────────────────────────────────────────────┘└─────────────────────────────────────────────────────────────────────────────┘</text>
  <text class="term" x="26" y="656" fill="#7d8aa6">┌──────────────────────────────────────────────────────────────────────────────────────────────────────────────────────────────┐</text>
  <text class="term" x="26" y="674" fill="#7d8aa6">│</text>
  <text class="term bold" x="35" y="674" fill="#ffd166"> [Q]/[ESC]</text>
  <text class="term" x="134" y="674" fill="#d9f2ff">quit</text>
  <text class="term bold" x="188" y="674" fill="#ffd166"> [C]</text>
  <text class="term" x="233" y="674" fill="#d9f2ff">clear events</text>
  <text class="term bold" x="359" y="674" fill="#28e7ff">KASPILOT REAL-TIME MINING COCKPIT</text>
  <text class="term" x="1169" y="674" fill="#7d8aa6">│</text>
  <text class="term" x="26" y="692" fill="#7d8aa6">└──────────────────────────────────────────────────────────────────────────────────────────────────────────────────────────────┘</text>
</svg>
